<?xml version="1.0" standalone="no"?><!DOCTYPE svg PUBLIC "-//W3C//DTD SVG 1.1//EN" "http://www.w3.org/Graphics/SVG/1.1/DTD/svg11.dtd"><svg t="1594352830934" class="icon" viewBox="0 0 1024 1024" version="1.1" xmlns="http://www.w3.org/2000/svg" p-id="4572" xmlns:xlink="http://www.w3.org/1999/xlink" width="100" height="100"><defs><style type="text/css"></style></defs><path d="M988.789029 79.374629 941.202286 79.374629c-39.424 0-71.387429 31.978057-71.387429 71.402057l0 499.594971c0 78.804114-63.912229 142.672457-142.701714 142.672457L156.145371 793.044114c-78.833371 0-142.7456-63.868343-142.7456-142.672457L13.399771 293.493029c0-78.833371 63.912229-142.716343 142.7456-142.716343l499.580343 0c13.151086 0 23.815314 10.634971 23.815314 23.7568l0 23.800686c0 13.121829-10.664229 23.786057-23.815314 23.786057L156.145371 222.120229c-39.409371 0-71.387429 31.934171-71.387429 71.3728l0 356.878629c0 39.394743 31.978057 71.343543 71.387429 71.343543l570.967771 0c39.409371 0 71.343543-31.9488 71.343543-71.343543l0-214.162286L798.456686 150.776686c0-78.862629 63.8976-142.7456 142.7456-142.7456l47.586743 0c13.121829 0 23.771429 10.634971 23.771429 23.771429l0 23.815314c0 13.121829-10.6496 23.815314-23.771429 23.815314L988.789029 79.374629M655.725714 602.741029 227.503543 602.741029c-13.165714 0-23.786057-10.6496-23.786057-23.771429l0-23.771429c0-13.151086 10.620343-23.800686 23.786057-23.800686l428.222171 0c13.151086 0 23.815314 10.6496 23.815314 23.800686l0 23.771429C679.541029 592.106057 668.891429 602.741029 655.725714 602.741029L655.725714 602.741029M655.725714 412.437943 227.503543 412.437943c-13.165714 0-23.786057-10.605714-23.786057-23.771429l0-23.800686c0-13.1072 10.620343-23.771429 23.786057-23.771429l428.222171 0c13.151086 0 23.815314 10.6496 23.815314 23.771429l0 23.800686C679.541029 401.832229 668.891429 412.437943 655.725714 412.437943L655.725714 412.437943M132.315429 864.446171c39.424 0 71.402057 31.992686 71.402057 71.358171 0 39.438629-31.978057 71.402057-71.402057 71.402057-39.380114 0-71.343543-31.963429-71.343543-71.402057C60.971886 896.424229 92.949943 864.446171 132.315429 864.446171L132.315429 864.446171M810.378971 857.439086c45.992229 0 83.265829 37.288229 83.265829 83.265829 0 45.948343-37.288229 83.280457-83.265829 83.280457-46.006857 0-83.265829-37.346743-83.265829-83.280457C727.113143 894.727314 764.386743 857.439086 810.378971 857.439086L810.378971 857.439086M810.378971 857.439086 810.378971 857.439086z" p-id="4573" fill="#d81e06"></path></svg>