<?xml version="1.0" standalone="no"?><!DOCTYPE svg PUBLIC "-//W3C//DTD SVG 1.1//EN" "http://www.w3.org/Graphics/SVG/1.1/DTD/svg11.dtd"><svg t="1594352806493" class="icon" viewBox="0 0 1024 1024" version="1.1" xmlns="http://www.w3.org/2000/svg" p-id="3751" xmlns:xlink="http://www.w3.org/1999/xlink" width="100" height="100"><defs><style type="text/css"></style></defs><path d="M788.091 116.179h0.007M788.091 116.179l-175.507 298.678h202.611v96.679h-236.22v133.337h236.324v97.849h-236.233v194.069h-121.63v-194.069h-244.892v-97.849h244.892v-133.337h-244.892v-96.769h209.034l-173.801-298.593h131.63c74.43 138.132 108.684 205.005 141.282 274.439 28.635-52.959 35.041-72.261 73.773-145.057l70.282-129.378h123.343M788.126 63.459h-123.386c-19.325 0-37.098 10.58-46.326 27.551l-70.282 129.378c-0.070 0.132-0.141 0.268-0.212 0.396-11.004 20.687-19.483 37.203-26.58 51.342-24.086-47.349-53.737-103.422-95.532-180.969-9.199-17.065-27.012-27.71-46.409-27.71h-131.63c-18.873 0-36.298 10.080-45.707 26.436-9.406 16.357-9.358 36.49 0.133 52.805l127.678 219.343h-117.343c-29.11 0-52.718 23.606-52.718 52.718v96.769c0 29.11 23.606 52.718 52.718 52.718h192.186v27.91h-192.186c-29.11 0-52.718 23.606-52.718 52.718v97.849c0 29.11 23.606 52.718 52.718 52.718h192.186v141.35c0 29.11 23.606 52.718 52.718 52.718h121.63c29.11 0 52.718-23.606 52.718-52.718v-141.35h183.521c29.11 0 52.718-23.606 52.718-52.718v-97.849c0-29.11-23.606-52.718-52.718-52.718h-183.599v-27.91h183.507c29.11 0 52.718-23.606 52.718-52.718v-96.673c0-29.11-23.606-52.718-52.718-52.718h-110.496l128.172-218.123c5.041-8.083 7.953-17.62 7.953-27.851 0.001-29.119-23.585-52.718-52.694-52.718v0z" p-id="3752" fill="#1296db"></path></svg>