<?xml version="1.0" standalone="no"?><!DOCTYPE svg PUBLIC "-//W3C//DTD SVG 1.1//EN" "http://www.w3.org/Graphics/SVG/1.1/DTD/svg11.dtd"><svg t="1594352778571" class="icon" viewBox="0 0 1024 1024" version="1.1" xmlns="http://www.w3.org/2000/svg" p-id="2938" xmlns:xlink="http://www.w3.org/1999/xlink" width="100" height="100"><defs><style type="text/css"></style></defs><path d="M851.235215 727.645408c70.898747-69.800739 109.61042-158.180626 109.61042-251.621784 0-211.786521-201.347774-384.090818-448.842565-384.090818S63.154365 264.237103 63.154365 476.023624c0 211.792661 201.353914 384.097982 448.848705 384.097982 62.845327 0 123.418914-10.855232 180.363857-32.299637l166.763095 98.830913c6.127558 3.634784 12.963243 5.415336 19.760043 5.415336 9.157567 0 18.251689-3.243881 25.490557-9.55461 12.609179-10.993378 16.743336-28.841885 10.255575-44.26618L851.235215 727.645408zM769.1855 732.630956l28.368094 67.38369-82.069157-48.63979c-6.065136-3.590781-12.899798-5.415336-19.766183-5.415336-5.124717 0-10.261715 1.016143-15.101953 3.060709-52.633754 22.265096-109.364827 33.550117-168.612209 33.550117-204.736964 0-371.298468-137.518027-371.298468-306.546721S307.266106 169.483042 512.00307 169.483042c204.730825 0 371.292328 137.511887 371.292328 306.540581 0 79.349209-36.812417 154.696268-103.646592 212.159004C766.881015 699.157587 762.652713 717.118658 769.1855 732.630956z" p-id="2939" fill="#1296db"></path><path d="M337.511967 479.686037m-51.700499 0a50.523 50.523 0 1 0 103.400998 0 50.523 50.523 0 1 0-103.400998 0Z" p-id="2940" fill="#1296db"></path><path d="M505.537821 479.686037m-51.700499 0a50.523 50.523 0 1 0 103.400998 0 50.523 50.523 0 1 0-103.400998 0Z" p-id="2941" fill="#1296db"></path><path d="M673.563676 479.686037m-51.700499 0a50.523 50.523 0 1 0 103.400998 0 50.523 50.523 0 1 0-103.400998 0Z" p-id="2942" fill="#1296db"></path></svg>